<?xml version="1.0" standalone="no"?>
   <!DOCTYPE svg PUBLIC "-//W3C//DTD SVG 1.1//EN" 
   "http://www.w3.org/Graphics/SVG/1.1/DTD/svg11.dtd"><svg id="svg" version="1.1" width="3375" height="4764" xmlns="http://www.w3.org/2000/svg"><path d="M1633.239 400.100 C 1632.038 403.227,1638.709 415.255,1652.160 434.215 C 1673.385 464.133,1689.706 489.214,1698.747 505.809 C 1710.322 527.055,1736.983 591.813,1747.274 623.676 C 1766.889 684.413,1771.004 709.163,1771.266 768.000 C 1771.566 835.244,1765.320 862.647,1739.691 906.528 C 1723.708 933.896,1724.521 940.064,1746.000 954.365 C 1773.151 972.442,1811.881 1012.955,1827.996 1040.136 C 1863.138 1099.410,1883.182 1191.801,1871.790 1242.000 C 1865.560 1269.450,1832.677 1309.244,1793.281 1337.007 C 1773.404 1351.015,1770.000 1354.680,1770.000 1362.075 C 1770.000 1370.024,1772.490 1372.015,1800.265 1386.283 C 1838.592 1405.970,1866.836 1433.215,1883.161 1466.245 C 1901.494 1503.341,1900.143 1528.779,1878.630 1551.538 C 1862.561 1568.538,1865.850 1571.252,1904.049 1572.515 C 1958.117 1574.301,1998.546 1565.269,2056.500 1538.456 C 2143.777 1498.077,2154.130 1493.715,2176.841 1487.757 C 2190.978 1484.048,2211.367 1481.351,2227.500 1481.056 C 2255.871 1480.537,2266.163 1483.769,2298.871 1503.469 C 2314.931 1513.142,2319.134 1509.408,2326.754 1478.702 C 2347.584 1394.762,2393.983 1337.265,2474.930 1295.082 C 2546.986 1257.534,2614.336 1245.882,2658.685 1263.293 C 2681.328 1272.181,2682.055 1271.359,2688.017 1230.108 C 2694.554 1184.883,2716.678 1120.856,2738.635 1083.618 C 2743.786 1074.883,2748.000 1067.069,2748.000 1066.253 C 2748.000 1065.437,2756.106 1052.714,2766.013 1037.980 C 2800.029 987.392,2850.084 928.877,2880.981 903.583 C 2898.441 889.289,2927.791 870.534,2937.945 867.183 C 2943.733 865.273,2949.337 861.448,2950.398 858.684 C 2952.682 852.732,2944.069 845.328,2937.157 847.303 C 2934.596 848.034,2920.350 850.799,2905.500 853.447 C 2890.650 856.094,2874.450 859.454,2869.500 860.914 C 2822.745 874.703,2801.823 881.735,2773.500 893.179 C 2706.737 920.157,2660.866 940.442,2592.000 973.445 C 2444.726 1044.023,2419.587 1053.205,2346.000 1063.289 C 2297.495 1069.936,2297.847 1069.458,2300.110 1125.692 C 2301.598 1162.691,2301.001 1171.757,2295.704 1192.500 C 2282.895 1242.666,2266.554 1273.028,2233.764 1307.589 C 2211.520 1331.035,2177.304 1353.000,2163.027 1353.000 C 2157.696 1353.000,2157.447 1351.055,2159.080 1322.209 C 2160.514 1296.895,2160.018 1290.749,2156.292 1287.657 C 2149.776 1282.249,2142.776 1286.068,2139.140 1297.015 C 2135.144 1309.044,2119.394 1326.000,2112.215 1326.000 C 2104.002 1326.000,2100.885 1320.482,2097.009 1299.079 C 2095.075 1288.397,2092.209 1277.259,2090.641 1274.329 C 2086.175 1265.984,2076.870 1268.043,2069.358 1279.039 C 2052.420 1303.833,2026.078 1327.426,2018.643 1324.462 C 2010.998 1321.415,1998.753 1300.677,1992.349 1279.934 C 1984.762 1255.358,1983.769 1210.149,1990.279 1185.695 C 1995.989 1164.243,2010.691 1133.501,2024.142 1114.882 C 2030.255 1106.422,2054.455 1079.925,2077.921 1056.000 C 2101.386 1032.075,2121.961 1008.879,2123.641 1004.453 C 2127.216 995.040,2124.297 982.559,2114.755 966.463 C 2111.181 960.434,2102.795 945.375,2096.121 933.000 C 2062.603 870.858,1987.966 754.999,1916.387 654.000 C 1861.826 577.013,1751.345 463.775,1692.000 424.013 C 1659.475 402.222,1653.821 399.014,1644.722 397.194 C 1637.415 395.733,1634.645 396.434,1633.239 400.100 M927.000 573.109 C 869.593 580.122,840.466 587.472,844.461 593.937 C 845.502 595.622,856.154 597.000,868.133 597.000 C 894.086 597.000,917.371 603.274,936.508 615.422 C 953.851 626.432,959.987 635.484,960.046 650.144 C 960.118 667.938,963.200 670.488,984.746 670.586 C 999.745 670.655,1006.543 672.334,1017.276 678.624 C 1044.227 694.418,1066.344 725.083,1069.995 751.715 C 1071.782 764.757,1077.227 774.000,1083.122 774.000 C 1084.604 774.000,1090.516 766.652,1096.261 757.671 C 1122.848 716.110,1141.927 703.893,1179.486 704.381 C 1206.581 704.733,1208.707 703.122,1211.083 680.444 C 1212.001 671.675,1215.181 659.775,1218.148 654.000 C 1231.359 628.289,1266.639 604.138,1305.348 594.308 C 1322.549 589.939,1327.500 587.481,1327.500 583.307 C 1327.500 576.059,1319.495 574.320,1275.000 571.906 C 1248.093 570.446,1227.770 571.165,1203.058 574.453 C 1146.343 581.998,1136.244 586.257,1129.053 605.665 C 1118.633 633.786,1105.560 645.000,1083.196 645.000 C 1074.066 645.000,1068.689 642.852,1061.297 636.249 C 1052.216 628.138,1051.454 626.001,1050.865 606.999 C 1050.516 595.725,1050.179 585.029,1050.115 583.232 C 1050.052 581.434,1046.288 578.256,1041.750 576.170 C 1031.280 571.356,957.467 569.387,927.000 573.109 M1087.090 1254.750 C 1065.669 1276.613,1038.014 1308.000,1025.634 1324.500 C 1003.442 1354.077,972.000 1399.803,972.000 1402.500 C 972.000 1403.261,967.070 1411.590,961.045 1421.010 C 941.052 1452.263,920.500 1498.902,919.979 1514.203 C 919.513 1527.864,919.892 1528.498,934.186 1537.937 C 958.356 1553.896,971.805 1569.154,984.045 1594.500 C 1002.814 1633.367,1006.360 1683.695,991.794 1704.491 C 987.878 1710.082,986.703 1709.158,970.720 1687.921 C 961.410 1675.552,952.152 1664.841,950.147 1664.121 C 943.022 1661.561,936.000 1668.055,936.000 1677.202 C 936.000 1682.147,934.044 1690.874,931.653 1696.596 C 928.065 1705.184,925.738 1707.000,918.323 1707.000 C 912.611 1707.000,907.741 1704.716,904.946 1700.727 C 902.472 1697.195,898.138 1694.915,895.026 1695.509 C 890.320 1696.408,889.370 1700.008,888.624 1719.783 C 887.600 1746.905,885.801 1747.967,865.059 1733.697 C 849.720 1723.143,833.350 1699.504,827.744 1679.811 C 825.467 1671.812,824.159 1651.989,824.467 1630.141 C 825.166 1580.412,827.346 1582.703,760.500 1562.906 C 748.950 1559.485,728.700 1555.351,715.500 1553.720 C 702.300 1552.088,684.075 1548.831,675.000 1546.482 C 647.686 1539.413,566.908 1526.040,553.666 1526.395 C 548.807 1526.525,543.586 1525.862,542.064 1524.921 C 538.693 1522.838,480.250 1523.025,473.979 1525.139 C 471.516 1525.969,466.816 1527.081,463.534 1527.609 C 460.253 1528.137,457.083 1531.092,456.489 1534.175 C 455.296 1540.373,461.406 1545.704,467.250 1543.563 C 469.313 1542.807,471.001 1543.158,471.002 1544.344 C 471.004 1545.530,477.416 1546.910,485.252 1547.412 C 521.346 1549.723,581.186 1574.602,614.466 1601.133 C 670.354 1645.688,687.217 1671.507,689.405 1715.876 C 691.034 1748.902,694.592 1753.237,724.069 1758.103 C 752.472 1762.791,785.144 1775.619,800.879 1788.261 C 817.946 1801.973,826.880 1818.209,831.274 1843.500 C 836.520 1873.695,839.107 1875.614,878.113 1878.241 C 950.643 1883.127,985.173 1911.917,984.642 1967.063 C 984.496 1982.200,985.699 1989.675,988.679 1992.148 C 995.463 1997.779,1001.515 1993.222,1003.607 1980.908 C 1007.557 1957.661,1020.881 1908.755,1029.771 1884.873 C 1043.438 1848.157,1089.057 1794.167,1119.372 1778.831 C 1128.652 1774.136,1137.106 1768.051,1138.158 1765.309 C 1140.101 1760.247,1134.902 1750.185,1117.169 1724.679 C 1099.013 1698.565,1094.354 1686.283,1092.730 1660.252 C 1090.903 1630.974,1098.323 1601.878,1114.717 1574.035 C 1120.373 1564.429,1125.000 1553.856,1125.000 1550.540 C 1125.000 1547.223,1120.312 1538.788,1114.581 1531.795 C 1108.851 1524.802,1100.414 1511.075,1095.831 1501.290 C 1087.987 1484.539,1087.507 1481.135,1087.619 1443.000 C 1087.726 1406.293,1088.813 1398.187,1099.224 1356.448 C 1105.542 1331.120,1115.379 1297.370,1121.084 1281.448 C 1139.149 1231.032,1140.959 1224.827,1139.052 1219.858 C 1135.020 1209.350,1124.941 1216.119,1087.090 1254.750 M1837.500 1741.837 C 1819.350 1754.158,1789.925 1773.973,1772.111 1785.870 C 1682.335 1845.824,1595.346 1911.431,1521.000 1975.257 C 1430.507 2052.946,1332.000 2146.853,1332.000 2155.431 C 1332.000 2157.842,1339.498 2163.487,1348.663 2167.974 C 1375.824 2181.274,1393.789 2205.658,1405.875 2245.628 C 1413.216 2269.909,1413.077 2322.498,1405.606 2347.500 C 1395.061 2382.785,1372.683 2418.000,1360.805 2418.000 C 1348.382 2418.000,1321.059 2384.745,1296.318 2339.511 C 1273.500 2297.793,1267.890 2300.429,1265.070 2354.193 C 1261.990 2412.928,1253.038 2429.899,1227.422 2425.571 C 1204.138 2421.638,1184.437 2401.897,1174.437 2372.481 C 1168.879 2356.132,1161.932 2348.638,1158.093 2354.850 C 1153.337 2362.545,1162.024 2432.331,1173.097 2475.376 C 1176.292 2487.798,1177.635 2498.565,1176.173 2500.027 C 1171.383 2504.817,1148.904 2498.530,1133.316 2488.040 C 1114.932 2475.668,1103.475 2462.986,1088.120 2438.010 C 1067.338 2404.208,1065.279 2387.323,1072.814 2312.496 C 1074.290 2297.846,1073.741 2295.072,1068.845 2292.452 C 1061.481 2288.511,1020.167 2281.043,984.000 2277.116 C 968.325 2275.414,944.025 2272.702,930.000 2271.090 C 769.170 2252.605,609.598 2250.817,514.500 2266.436 C 499.650 2268.875,473.325 2273.040,456.000 2275.691 C 438.675 2278.343,423.532 2281.433,422.348 2282.558 C 421.165 2283.683,420.935 2287.426,421.837 2290.875 C 423.272 2296.365,426.464 2297.378,447.422 2298.994 C 472.059 2300.894,495.073 2304.711,526.500 2312.109 C 536.400 2314.440,546.525 2316.748,549.000 2317.240 C 573.120 2322.026,624.678 2340.739,647.778 2353.091 C 668.814 2364.339,703.725 2399.418,715.391 2421.029 C 727.156 2442.826,728.171 2475.388,717.699 2495.130 C 710.485 2508.732,709.150 2518.502,714.088 2521.554 C 715.786 2522.604,728.319 2518.676,741.940 2512.827 C 817.494 2480.375,899.939 2487.889,948.680 2531.667 C 979.474 2559.326,994.310 2588.566,1001.363 2635.500 C 1004.464 2656.134,1010.746 2656.493,1035.881 2637.469 C 1080.653 2603.580,1138.536 2595.766,1179.526 2618.076 C 1188.937 2623.198,1203.237 2635.809,1216.223 2650.438 C 1263.540 2703.742,1282.192 2719.149,1324.500 2739.872 C 1358.106 2756.333,1382.689 2765.129,1410.000 2770.463 C 1424.025 2773.202,1443.306 2777.596,1452.846 2780.226 C 1477.492 2787.021,1480.741 2782.160,1461.595 2767.137 C 1445.531 2754.533,1427.886 2729.456,1421.958 2710.805 C 1419.914 2704.373,1418.089 2688.846,1417.904 2676.301 C 1417.619 2657.057,1418.863 2650.841,1425.860 2636.539 C 1434.187 2619.520,1451.842 2601.338,1468.313 2592.821 C 1482.074 2585.705,1493.369 2582.810,1522.176 2579.014 C 1557.455 2574.367,1558.372 2572.774,1544.384 2540.468 C 1520.010 2484.171,1516.991 2449.380,1533.648 2416.731 C 1541.988 2400.382,1570.310 2372.907,1588.500 2363.518 C 1613.323 2350.706,1645.637 2340.302,1667.176 2338.186 C 1701.072 2334.856,1704.967 2329.597,1695.313 2300.185 C 1685.847 2271.346,1674.631 2209.887,1672.467 2175.000 C 1667.574 2096.085,1689.257 2011.876,1743.149 1900.500 C 1780.084 1824.169,1802.051 1793.599,1858.114 1740.509 C 1873.589 1725.855,1878.536 1718.658,1872.750 1719.217 C 1871.513 1719.337,1855.650 1729.516,1837.500 1741.837 M2042.285 2197.715 C 2041.089 2198.911,2049.020 2209.332,2059.907 2220.873 C 2085.685 2248.199,2100.556 2278.315,2100.795 2303.677 C 2100.986 2323.920,2096.689 2336.647,2084.238 2352.717 C 2079.458 2358.887,2075.987 2366.111,2076.524 2368.772 C 2077.061 2371.432,2083.575 2376.966,2091.000 2381.070 C 2125.736 2400.270,2152.693 2442.548,2155.961 2482.952 C 2157.487 2501.822,2156.863 2504.933,2148.311 2521.055 C 2132.937 2550.041,2136.272 2553.928,2167.961 2543.957 C 2194.307 2535.667,2243.525 2532.743,2260.417 2538.464 C 2273.639 2542.942,2279.887 2552.090,2279.956 2567.073 C 2279.980 2572.338,2281.496 2577.570,2283.324 2578.700 C 2285.152 2579.830,2293.991 2578.258,2302.966 2575.208 L 2319.284 2569.661 2332.304 2576.568 C 2348.318 2585.063,2361.023 2602.349,2370.107 2628.000 C 2378.046 2650.415,2380.959 2655.000,2387.266 2655.000 C 2391.158 2655.000,2391.558 2649.614,2390.102 2616.750 C 2389.170 2595.713,2386.187 2568.481,2383.473 2556.236 C 2374.999 2518.004,2340.890 2448.595,2322.313 2431.784 C 2315.577 2425.687,2309.132 2427.894,2303.672 2438.166 C 2292.190 2459.764,2262.014 2469.454,2245.845 2456.735 C 2222.966 2438.739,2223.117 2405.866,2246.168 2386.000 C 2259.402 2374.596,2258.519 2371.049,2236.174 2345.856 C 2167.730 2268.690,2056.384 2183.616,2042.285 2197.715 M2216.742 2950.005 C 2209.459 2955.507,2187.635 2971.730,2168.244 2986.056 C 2148.853 3000.381,2131.315 3014.779,2129.272 3018.051 C 2127.229 3021.323,2124.466 3024.000,2123.134 3024.000 C 2120.414 3024.000,2071.270 3060.630,2037.000 3088.201 C 2001.745 3116.565,1967.927 3146.611,1950.772 3164.812 C 1932.504 3184.195,1929.214 3195.203,1935.054 3217.409 C 1941.071 3240.290,1940.547 3286.201,1934.044 3306.000 C 1923.773 3337.266,1904.915 3371.273,1887.127 3390.607 L 1869.744 3409.500 1863.127 3394.500 C 1859.487 3386.250,1855.270 3377.156,1853.755 3374.291 C 1852.240 3371.426,1851.000 3367.038,1851.000 3364.541 C 1851.000 3362.043,1849.162 3360.000,1846.917 3360.000 C 1844.090 3360.000,1842.311 3365.760,1841.136 3378.716 C 1839.748 3394.021,1838.002 3398.668,1831.552 3404.216 C 1819.659 3414.446,1813.445 3412.780,1800.918 3396.000 C 1783.730 3372.978,1776.607 3377.083,1782.769 3406.461 C 1785.633 3420.111,1785.472 3425.429,1781.884 3435.760 C 1777.738 3447.699,1776.687 3448.520,1762.500 3450.915 C 1754.250 3452.308,1740.461 3452.581,1731.857 3451.521 C 1717.538 3449.758,1715.350 3448.406,1706.013 3435.547 C 1698.757 3425.555,1694.714 3415.563,1692.006 3400.930 C 1688.537 3382.181,1687.372 3380.023,1678.850 3376.564 C 1673.543 3374.410,1649.395 3372.021,1623.000 3371.039 C 1582.569 3369.535,1523.915 3363.498,1502.389 3358.625 C 1498.600 3357.767,1488.750 3356.416,1480.500 3355.624 C 1472.250 3354.831,1448.219 3352.174,1427.098 3349.718 C 1371.497 3343.253,1293.334 3346.129,1227.000 3357.079 C 1216.275 3358.850,1200.768 3361.244,1192.540 3362.399 C 1182.511 3363.808,1177.282 3366.048,1176.677 3369.197 C 1175.881 3373.335,1183.364 3373.918,1239.637 3374.095 C 1274.761 3374.206,1311.712 3375.824,1321.748 3377.690 C 1359.241 3384.660,1412.704 3404.894,1425.346 3416.898 C 1437.495 3428.435,1445.691 3446.560,1446.591 3463.879 C 1447.429 3480.014,1448.158 3481.612,1455.927 3484.332 C 1461.706 3486.356,1465.005 3486.270,1466.427 3484.060 C 1478.839 3464.768,1572.387 3453.667,1600.739 3468.122 C 1607.080 3471.355,1613.758 3474.000,1615.579 3474.000 C 1620.265 3474.000,1645.707 3500.177,1656.186 3515.779 C 1661.034 3522.997,1665.099 3532.412,1665.219 3536.701 C 1665.662 3552.462,1682.405 3570.580,1688.641 3562.045 C 1697.455 3549.980,1728.278 3541.739,1748.355 3546.080 C 1776.452 3552.154,1801.653 3570.425,1812.333 3592.463 C 1815.541 3599.083,1822.118 3611.250,1826.947 3619.500 C 1831.777 3627.750,1837.911 3641.588,1840.577 3650.250 C 1844.515 3663.042,1846.672 3666.000,1852.062 3666.000 C 1857.941 3666.000,1859.144 3663.518,1862.605 3644.250 C 1873.779 3582.042,1881.425 3548.162,1887.249 3535.054 C 1902.037 3501.770,1907.319 3493.275,1923.689 3476.451 C 1939.472 3460.231,1942.781 3458.299,1964.138 3452.837 C 1976.931 3449.565,1988.999 3445.226,1990.956 3443.194 C 1993.147 3440.919,1994.823 3426.821,1995.319 3406.500 C 1996.057 3376.274,1996.932 3371.861,2005.736 3354.000 C 2015.221 3334.757,2040.805 3297.415,2047.206 3293.470 C 2049.018 3292.354,2055.492 3286.837,2061.593 3281.209 C 2067.694 3275.582,2081.568 3266.606,2092.423 3261.262 C 2117.584 3248.875,2122.810 3241.478,2118.583 3224.238 C 2110.868 3192.779,2111.221 3179.880,2120.655 3148.500 C 2130.509 3115.725,2151.548 3072.787,2173.679 3040.288 C 2190.930 3014.954,2225.574 2971.151,2236.207 2961.227 C 2240.493 2957.227,2244.000 2950.814,2244.000 2946.977 C 2244.000 2936.679,2232.722 2937.932,2216.742 2950.005 M1752.750 3802.987 C 1747.224 3805.217,1748.191 3812.367,1754.250 3814.079 C 1757.138 3814.894,1765.187 3816.445,1772.138 3817.526 C 1814.480 3824.105,1840.421 3876.696,1825.532 3925.773 C 1823.075 3933.873,1821.050 3940.741,1821.032 3941.036 C 1821.015 3941.330,1823.024 3943.595,1825.498 3946.069 C 1828.865 3949.437,1834.078 3950.146,1846.241 3948.890 C 1860.777 3947.390,1863.281 3948.008,1870.035 3954.762 C 1881.016 3965.743,1884.979 3984.072,1883.167 4015.500 C 1882.311 4030.350,1882.261 4044.188,1883.055 4046.250 C 1885.722 4053.172,1892.829 4050.098,1909.903 4034.635 C 1931.572 4015.011,1955.493 4003.674,1969.633 4006.327 C 1979.706 4008.217,1982.289 4010.734,1995.980 4032.000 C 2005.480 4046.757,2012.519 4045.657,2021.610 4027.993 C 2025.716 4020.013,2033.361 4010.217,2038.598 4006.222 C 2052.047 3995.964,2077.815 3991.706,2099.368 3996.180 C 2114.543 3999.331,2118.448 4001.834,2134.736 4018.861 C 2153.149 4038.107,2158.350 4041.171,2160.860 4034.250 C 2163.168 4027.888,2154.933 4011.696,2134.436 3982.298 C 2108.659 3945.326,2086.432 3921.637,2053.955 3896.525 C 2018.701 3869.265,2013.000 3869.602,2013.000 3898.943 C 2013.000 3939.796,1975.144 3949.025,1949.165 3914.505 C 1945.023 3909.002,1939.211 3897.583,1936.248 3889.128 C 1931.428 3875.377,1931.287 3871.978,1934.906 3856.891 C 1938.611 3841.446,1938.493 3839.517,1933.497 3833.997 C 1927.901 3827.813,1900.186 3818.345,1872.070 3813.013 C 1859.243 3810.581,1759.738 3800.379,1757.201 3801.237 C 1756.815 3801.367,1754.813 3802.155,1752.750 3802.987 M1738.500 4168.227 C 1711.815 4174.839,1670.489 4199.823,1649.174 4222.230 C 1638.903 4233.027,1637.702 4235.866,1638.303 4247.934 C 1639.229 4266.527,1636.139 4274.257,1625.604 4279.705 C 1612.670 4286.393,1598.044 4280.960,1587.959 4265.720 C 1579.030 4252.229,1573.357 4251.248,1547.931 4258.798 C 1525.393 4265.492,1463.852 4292.204,1457.291 4298.142 C 1448.399 4306.189,1455.766 4308.506,1474.624 4303.594 C 1495.482 4298.161,1506.256 4297.873,1522.500 4302.315 C 1538.600 4306.717,1544.182 4312.278,1546.545 4326.267 C 1547.635 4332.720,1550.096 4337.994,1552.014 4337.987 C 1553.931 4337.981,1562.141 4334.606,1570.258 4330.487 C 1578.892 4326.107,1590.097 4323.012,1597.258 4323.029 C 1614.721 4323.071,1637.803 4334.898,1655.119 4352.675 C 1676.533 4374.659,1679.996 4373.557,1680.017 4344.750 C 1680.026 4331.963,1681.403 4316.570,1683.076 4310.545 C 1687.005 4296.401,1705.912 4279.325,1722.580 4274.868 C 1742.496 4269.543,1743.547 4267.866,1741.297 4245.026 C 1738.862 4220.324,1742.792 4211.528,1766.248 4189.169 C 1785.964 4170.376,1785.989 4163.865,1766.344 4164.255 C 1759.280 4164.395,1746.750 4166.183,1738.500 4168.227 " stroke="none" fill="black" fill-rule="evenodd"/></svg>